<?xml version="1.0" standalone="no"?>
<!DOCTYPE svg PUBLIC "-//W3C//DTD SVG 20010904//EN"
 "http://www.w3.org/TR/2001/REC-SVG-20010904/DTD/svg10.dtd">
<svg version="1.0" xmlns="http://www.w3.org/2000/svg"
 width="400.000000pt" height="400.000000pt" viewBox="0 0 400.000000 400.000000"
 preserveAspectRatio="xMidYMid meet">
<metadata>
Created by potrace 1.11, written by Peter Selinger 2001-2013
</metadata>
<g transform="translate(0.000000,400.000000) scale(0.100000,-0.100000)"
fill="#000000" stroke="none">
<path d="M1945 3618 c-22 -35 -40 -67 -40 -73 0 -5 -7 -15 -15 -22 -13 -10
-13 -15 -1 -35 10 -18 10 -20 0 -10 -15 14 -29 16 -29 3 0 -5 -22 -46 -50 -90
-27 -44 -50 -85 -50 -91 0 -5 -3 -10 -8 -10 -4 0 -16 -17 -27 -37 -11 -21 -32
-57 -47 -80 -15 -23 -28 -44 -28 -48 0 -3 -11 -22 -25 -42 -13 -20 -21 -41
-18 -46 3 -6 2 -7 -4 -4 -10 6 -38 -40 -35 -55 1 -5 -3 -8 -9 -8 -6 0 -9 -7
-5 -15 3 -8 1 -14 -5 -12 -6 1 -19 -12 -28 -30 -10 -17 -26 -43 -35 -58 -15
-23 -16 -29 -5 -37 11 -8 10 -9 -2 -5 -13 4 -32 -21 -78 -99 -34 -58 -59 -110
-55 -116 4 -6 3 -8 -4 -4 -9 6 -88 -113 -91 -137 0 -4 -5 -13 -11 -20 -24 -28
-70 -103 -70 -114 0 -6 -3 -13 -7 -15 -11 -4 -63 -86 -63 -98 0 -5 -5 -10 -10
-10 -6 0 -9 -3 -8 -8 2 -4 -11 -30 -28 -57 -17 -28 -54 -87 -82 -133 -31 -50
-45 -79 -35 -74 10 5 41 20 68 32 28 12 77 35 110 50 106 49 169 77 193 84 12
4 22 15 23 24 0 9 3 12 5 6 7 -16 46 -5 40 11 -3 8 4 10 21 7 20 -4 24 -2 18
8 -5 9 -4 11 4 6 6 -4 17 -3 24 2 7 5 23 13 37 17 14 4 31 15 38 24 8 9 11 10
7 3 -5 -10 -1 -10 19 0 14 6 26 15 26 20 0 4 3 7 8 6 13 -4 82 26 82 35 0 4 4
6 9 3 4 -3 17 1 27 9 10 8 27 15 37 15 9 0 17 4 17 10 0 5 3 9 8 8 12 -2 46
15 60 31 8 9 11 10 7 4 -8 -18 -7 -17 63 17 104 50 87 52 292 -42 115 -52 141
-64 400 -181 280 -126 376 -170 433 -197 20 -10 37 -15 37 -11 0 7 -66 117
-422 706 -712 1178 -631 1045 -638 1045 -3 0 -23 -28 -45 -62z m-35 -292 c0
-2 -7 -7 -16 -10 -8 -3 -12 -2 -9 4 6 10 25 14 25 6z m-109 -79 c-10 -9 -11
-8 -5 6 3 10 9 15 12 12 3 -3 0 -11 -7 -18z m109 -43 c0 -8 -19 -13 -24 -6 -3
5 1 9 9 9 8 0 15 -2 15 -3z m-189 -37 c-10 -9 -11 -8 -5 6 3 10 9 15 12 12 3
-3 0 -11 -7 -18z m183 -5 c3 -5 -1 -9 -9 -9 -8 0 -12 4 -9 9 3 4 7 8 9 8 2 0
6 -4 9 -8z m-99 -11 c3 -5 2 -12 -3 -15 -5 -3 -9 1 -9 9 0 17 3 19 12 6z
m-120 -20 c3 -5 2 -12 -3 -15 -5 -3 -9 1 -9 9 0 17 3 19 12 6z m3 -61 c-7 -10
-14 -17 -17 -15 -4 4 18 35 25 35 2 0 -1 -9 -8 -20z m22 -70 c0 -5 -5 -10 -11
-10 -5 0 -7 5 -4 10 3 6 8 10 11 10 2 0 4 -4 4 -10z m220 6 c0 -3 -4 -8 -10
-11 -5 -3 -10 -1 -10 4 0 6 5 11 10 11 6 0 10 -2 10 -4z m-286 -72 c3 -8 2
-12 -4 -9 -6 3 -10 10 -10 16 0 14 7 11 14 -7z m286 12 c0 -3 -4 -8 -10 -11
-5 -3 -10 -1 -10 4 0 6 5 11 10 11 6 0 10 -2 10 -4z m-383 -43 c-4 -3 -1 -13
6 -22 11 -14 10 -14 -5 -2 -16 12 -16 31 -1 31 4 0 3 -3 0 -7z m248 -63 c3 -6
-1 -7 -9 -4 -18 7 -21 14 -7 14 6 0 13 -4 16 -10z m109 -49 c-2 -3 -12 3 -22
13 -16 17 -16 18 5 5 12 -7 20 -15 17 -18z m-59 10 c3 -5 2 -12 -3 -15 -5 -3
-9 1 -9 9 0 17 3 19 12 6z m-284 -34 c-10 -9 -11 -8 -5 6 3 10 9 15 12 12 3
-3 0 -11 -7 -18z m-81 -3 c0 -8 -19 -13 -24 -6 -3 5 1 9 9 9 8 0 15 -2 15 -3z
m270 2 c0 -2 -7 -7 -16 -10 -8 -3 -12 -2 -9 4 6 10 25 14 25 6z m-265 -54 c-3
-3 -11 0 -18 7 -9 10 -8 11 6 5 10 -3 15 -9 12 -12z m250 8 c-3 -5 -12 -10
-18 -10 -7 0 -6 4 3 10 19 12 23 12 15 0z m60 0 c-3 -5 -12 -10 -18 -10 -7 0
-6 4 3 10 19 12 23 12 15 0z m90 -20 c3 -5 1 -10 -4 -10 -6 0 -11 5 -11 10 0
6 2 10 4 10 3 0 8 -4 11 -10z m-317 -45 c-3 -3 -9 2 -12 12 -6 14 -5 15 5 6 7
-7 10 -15 7 -18z m-178 -55 c0 -5 -5 -10 -11 -10 -5 0 -7 5 -4 10 3 6 8 10 11
10 2 0 4 -4 4 -10z m120 4 c0 -8 -19 -13 -24 -6 -3 5 1 9 9 9 8 0 15 -2 15 -3z
m210 0 c0 -8 -19 -13 -24 -6 -3 5 1 9 9 9 8 0 15 -2 15 -3z m-110 -44 c0 -5
-4 -10 -10 -10 -5 0 -10 5 -10 10 0 6 5 10 10 10 6 0 10 -4 10 -10z m321 -37
c13 -16 12 -17 -3 -4 -10 7 -18 15 -18 17 0 8 8 3 21 -13z m-427 -1 c3 -5 -1
-9 -9 -9 -8 0 -12 4 -9 9 3 4 7 8 9 8 2 0 6 -4 9 -8z m210 0 c3 -5 -1 -9 -9
-9 -8 0 -12 4 -9 9 3 4 7 8 9 8 2 0 6 -4 9 -8z m-399 -42 c-3 -5 -12 -10 -18
-10 -7 0 -6 4 3 10 19 12 23 12 15 0z m329 -26 c3 -8 2 -12 -4 -9 -6 3 -10 10
-10 16 0 14 7 11 14 -7z m246 -28 c0 -3 -4 -8 -10 -11 -5 -3 -10 -1 -10 4 0 6
5 11 10 11 6 0 10 -2 10 -4z m-400 -26 c0 -5 -2 -10 -4 -10 -3 0 -8 5 -11 10
-3 6 -1 10 4 10 6 0 11 -4 11 -10z m230 0 c-8 -5 -19 -10 -25 -10 -5 0 -3 5 5
10 8 5 20 10 25 10 6 0 3 -5 -5 -10z m60 0 c-8 -5 -19 -10 -25 -10 -5 0 -3 5
5 10 8 5 20 10 25 10 6 0 3 -5 -5 -10z m50 0 c0 -5 -5 -10 -11 -10 -5 0 -7 5
-4 10 3 6 8 10 11 10 2 0 4 -4 4 -10z m-460 -35 c14 -19 14 -19 -2 -6 -10 7
-18 18 -18 24 0 6 1 8 3 6 1 -2 9 -13 17 -24z m180 -5 c0 -5 -5 -10 -11 -10
-5 0 -7 5 -4 10 3 6 8 10 11 10 2 0 4 -4 4 -10z m-186 -38 c3 -5 -1 -9 -9 -9
-8 0 -12 4 -9 9 3 4 7 8 9 8 2 0 6 -4 9 -8z m120 -28 c3 -8 2 -12 -4 -9 -6 3
-10 10 -10 16 0 14 7 11 14 -7z m-76 -39 c-3 -3 -9 2 -12 12 -6 14 -5 15 5 6
7 -7 10 -15 7 -18z m162 -9 c0 -2 -7 -7 -16 -10 -8 -3 -12 -2 -9 4 6 10 25 14
25 6z m-249 -39 c-10 -9 -11 -8 -5 6 3 10 9 15 12 12 3 -3 0 -11 -7 -18z m-76
-66 c3 -5 2 -12 -3 -15 -5 -3 -9 1 -9 9 0 17 3 19 12 6z m-124 -38 c-12 -20
-14 -14 -5 12 4 9 9 14 11 11 3 -2 0 -13 -6 -23z m-40 -56 c-10 -9 -11 -8 -5
6 3 10 9 15 12 12 3 -3 0 -11 -7 -18z"/>
<path d="M2003 1845 c3 -256 6 -468 9 -470 2 -2 73 37 158 87 85 50 196 114
245 143 563 328 507 291 469 305 -16 6 -56 24 -89 40 -33 15 -184 84 -335 153
-151 69 -315 143 -363 166 -49 23 -90 41 -93 41 -3 0 -3 -209 -1 -465z"/>
<path d="M930 1866 c0 -7 46 -76 91 -136 14 -19 212 -298 439 -620 227 -322
438 -620 469 -663 l55 -78 18 23 c10 13 230 320 490 683 259 363 492 686 516
718 24 32 42 60 40 62 -6 6 -18 -1 -566 -323 l-494 -289 -496 294 c-274 162
-512 304 -529 315 -18 11 -33 17 -33 14z"/>
</g>
</svg>
